<?xml version="1.0" encoding="UTF-8" standalone="no"?>
<!-- Created with Inkscape (http://www.inkscape.org/) -->

<svg
   xmlns:dc="http://purl.org/dc/elements/1.1/"
   xmlns:cc="http://creativecommons.org/ns#"
   xmlns:rdf="http://www.w3.org/1999/02/22-rdf-syntax-ns#"
   xmlns:svg="http://www.w3.org/2000/svg"
   xmlns="http://www.w3.org/2000/svg"
   version="1.1"
   width="464.875"
   height="682.4375"
   id="svg3039">
  <metadata
     id="metadata3045">
    <rdf:RDF>
      <cc:Work
         rdf:about="">
        <dc:format>image/svg+xml</dc:format>
        <dc:type
           rdf:resource="http://purl.org/dc/dcmitype/StillImage" />
        <dc:title></dc:title>
      </cc:Work>
    </rdf:RDF>
  </metadata>
  <defs
     id="defs3043">
    <linearGradient
       id="linearGradient3879">
      <stop
         id="stop3881"
         style="stop-color:#888c90;stop-opacity:0.58646619"
         offset="0" />
      <stop
         id="stop3883"
         style="stop-color:#7e8287;stop-opacity:1"
         offset="1" />
    </linearGradient>
  </defs>
  <path
     d="m 0.09375,0.09375 0,682.28125 464.71875,0 0,-682.28125 -464.71875,0 z m 109.5,73.84375 226.5,0 0,208.71875 -226.5,0 0,-208.71875 z"
     id="rect3127"
     style="fill:#c1c3c5;fill-opacity:1;stroke:#c1c3c5;stroke-width:0.14523576;stroke-miterlimit:4;stroke-opacity:1;stroke-dasharray:none" />
  <path
     d="m 56.4375,41.75 c -7.63901,0 -13.8125,6.14224 -13.8125,13.78125 l 0,246.28125 c 0,7.63901 6.17349,13.78125 13.8125,13.78125 l 286.875,0 c 27.9907,0 59.625,-17.73812 59.625,-53.65625 l 0,-206.40625 c 0,-7.63901 -6.14225,-13.78125 -13.78125,-13.78125 l -332.71875,0 z m 53.15625,32.1875 226.5,0 0,208.71875 -226.5,0 0,-208.71875 z"
     id="rect3124"
     style="fill:#606c78;fill-opacity:1;stroke:#606c78;stroke-width:0.31739601;stroke-miterlimit:4;stroke-opacity:1" />
  <path
     d="m 108.375,72.84375 0,209.8125 1.21875,0 0,-208.71875 226.5,0 0,-1.09375 -227.71875,0 z"
     id="rect3120"
     style="fill:#000000;fill-opacity:1;stroke:#000000;stroke-width:0.30000001;stroke-miterlimit:4;stroke-opacity:1;stroke-dasharray:none" />
  <rect
     width="53.245773"
     height="13.000922"
     ry="6.5004611"
     x="-131.69814"
     y="571.7204"
     transform="matrix(0.89844433,-0.43908744,0.44737605,0.89434594,0,0)"
     id="rect3903"
     style="fill:#adafb2;fill-opacity:1;stroke:#adafb2;stroke-width:13.13928127;stroke-miterlimit:4;stroke-opacity:1;stroke-dasharray:none" />
  <rect
     width="53.245773"
     height="13.000922"
     ry="6.5004611"
     x="-131.69815"
     y="571.7204"
     transform="matrix(0.89844433,-0.43908744,0.44737605,0.89434594,0,0)"
     id="rect3059"
     style="fill:#606c78;fill-opacity:1;stroke:#606c78;stroke-width:0.33889049;stroke-miterlimit:4;stroke-opacity:1;stroke-dasharray:none" />
  <rect
     width="53.245773"
     height="13.000922"
     ry="6.5004611"
     x="-67.035835"
     y="603.46698"
     transform="matrix(0.89844433,-0.43908744,0.44737605,0.89434594,0,0)"
     id="rect3901"
     style="fill:#adafb2;fill-opacity:1;stroke:#adafb2;stroke-width:13.13928127;stroke-miterlimit:4;stroke-opacity:1;stroke-dasharray:none" />
  <rect
     width="53.245773"
     height="13.000922"
     ry="6.5004611"
     x="-67.035835"
     y="603.46698"
     transform="matrix(0.89844433,-0.43908744,0.44737605,0.89434594,0,0)"
     id="rect3105"
     style="fill:#606c78;fill-opacity:1;stroke:#606c78;stroke-width:0.33900726;stroke-miterlimit:4;stroke-opacity:1;stroke-dasharray:none" />
  <path
     d="m 154.72569,466.63589 a 71.933876,71.933876 0 1 1 -143.867749,0 71.933876,71.933876 0 1 1 143.867749,0 z"
     transform="matrix(0.93710692,0,0,0.93710692,19.24334,26.102898)"
     id="path3887"
     style="fill:#adafb2;fill-opacity:1;stroke:none" />
  <path
     d="m 84.53125,412.71875 c -2.48573,0 -4.46875,1.98302 -4.46875,4.46875 l 0,29.4375 -29.4375,0 c -2.48573,0 -4.46875,2.01427 -4.46875,4.5 l 0,24.53125 c 0,2.48573 1.98302,4.5 4.46875,4.5 l 29.4375,0 0,29.4375 c 0,2.48573 1.98302,4.46875 4.46875,4.46875 l 24.5625,0 c 2.48573,0 4.5,-1.98302 4.5,-4.46875 l 0,-29.4375 29.4375,0 c 2.48573,0 4.46875,-2.01427 4.46875,-4.5 l 0,-24.53125 c 0,-2.48573 -1.98302,-4.5 -4.46875,-4.5 l -29.4375,0 0,-29.4375 c 0,-2.48573 -2.01427,-4.46875 -4.5,-4.46875 l -24.5625,0 z"
     id="rect3107"
     style="fill:#000000;fill-opacity:1;stroke:#000000;stroke-width:0.30849868;stroke-miterlimit:4;stroke-opacity:1;stroke-dasharray:none" />
  <path
     d="m 378.1875,404.625 c -6.50451,0 -12.57054,1.90728 -17.68785,5.20117 l -63.57597,30.01725 c -12.19134,4.96657 -20.79868,17.08284 -20.79868,31.25033 0,18.59491 14.82761,33.6875 33.125,33.6875 3.02252,0 5.95036,-0.41184 8.73232,-1.18326 l 78.10239,-36.95704 c 9.16102,-5.98571 15.22779,-16.4342 15.22779,-28.32845 0,-18.59491 -14.82761,-33.6875 -33.125,-33.6875 z"
     id="path3103"
     style="fill:#adafb2;fill-opacity:1;fill-rule:evenodd;stroke:none" />
  <path
     d="m 1102.7329,721.49066 a 23.47826,23.47826 0 1 1 -46.9565,0 23.47826,23.47826 0 1 1 46.9565,0 z"
     transform="matrix(1.0899575,0,0,1.0899575,-867.09503,-315.28954)"
     id="path3112"
     style="fill:#963c77;fill-opacity:1;stroke:#963c77;stroke-width:0.30000001;stroke-miterlimit:4;stroke-opacity:1;stroke-dasharray:none" />
  <path
     d="m 1102.7329,721.49066 a 23.47826,23.47826 0 1 1 -46.9565,0 23.47826,23.47826 0 1 1 46.9565,0 z"
     transform="matrix(1.0899575,0,0,1.0899575,-798.15093,-348.08457)"
     id="path3118"
     style="fill:#963c77;fill-opacity:1;stroke:#963c77;stroke-width:0.30000001;stroke-miterlimit:4;stroke-opacity:1;stroke-dasharray:none" />
  <path
     d="m 160.64635,458.71863 -7.8336,4.52273 -7.83359,4.52273 0,-9.04546 0,-9.04546 7.83359,4.52273 z"
     transform="matrix(0.63672946,0,0,0.63672946,58.111385,171.31096)"
     id="path3889"
     style="fill:#c1c3c5;fill-opacity:1;stroke:none" />
  <path
     d="m 160.64635,458.71863 -7.8336,4.52273 -7.83359,4.52273 0,-9.04546 0,-9.04546 7.83359,4.52273 z"
     transform="matrix(-0.63672946,0,0,0.63672946,135.53685,171.31096)"
     id="path3893"
     style="fill:#c1c3c5;fill-opacity:1;stroke:none" />
  <path
     d="m 160.64635,458.71863 -7.8336,4.52273 -7.83359,4.52273 0,-9.04546 0,-9.04546 7.83359,4.52273 z"
     transform="matrix(0,0.63672946,-0.63672946,0,388.90378,424.67789)"
     id="path3895"
     style="fill:#c1c3c5;fill-opacity:1;stroke:none" />
  <path
     d="m 160.64635,458.71863 -7.8336,4.52273 -7.83359,4.52273 0,-9.04546 0,-9.04546 7.83359,4.52273 z"
     transform="matrix(0,-0.63672946,-0.63672946,0,388.90378,502.10336)"
     id="path3897"
     style="fill:#c1c3c5;fill-opacity:1;stroke:none" />
</svg>
